<svg width="15" height="12" viewBox="0 0 15 12" fill="none" xmlns="http://www.w3.org/2000/svg">
<path d="M11.4334 10.3201C11.1578 10.2564 10.9483 10.1024 10.805 9.85785C10.6622 9.61298 10.6226 9.35275 10.6862 9.07715L11.5849 5.18439L2.1292 11.093C1.88892 11.2431 1.6365 11.2877 1.37193 11.2266C1.10828 11.1657 0.90138 11.0151 0.751237 10.7749C0.601093 10.5346 0.556278 10.2823 0.616794 10.0181C0.678228 9.75412 0.829085 9.54704 1.06937 9.3969L10.5251 3.4883L6.5979 2.58163C6.3223 2.518 6.11155 2.36944 5.96565 2.13595C5.8201 1.90302 5.77914 1.64875 5.84276 1.37316C5.90639 1.09757 6.05495 0.886819 6.28844 0.740915C6.52137 0.595363 6.77564 0.5544 7.05123 0.618026L13.3554 2.07347C13.4932 2.10528 13.6108 2.15953 13.7083 2.23621C13.8052 2.31324 13.8889 2.4083 13.9596 2.52137C14.0302 2.63444 14.079 2.7514 14.1057 2.87224C14.1319 2.99344 14.1291 3.12294 14.0973 3.26073L12.6339 9.59938C12.5756 9.85201 12.43 10.0511 12.197 10.1967C11.9635 10.3426 11.709 10.3837 11.4334 10.3201Z" fill="white"/>
</svg>
