<svg width="57" height="56" viewBox="0 0 57 56" fill="none" xmlns="http://www.w3.org/2000/svg">
<path d="M57 27.585C57 42.7728 44.2401 55.085 28.5 55.085C12.7599 55.085 0 42.7728 0 27.585C0 12.3971 12.7599 0.0849609 28.5 0.0849609C44.2401 0.0849609 57 12.3971 57 27.585ZM2.8384 27.585C2.8384 41.2602 14.3275 52.3462 28.5 52.3462C42.6725 52.3462 54.1616 41.2602 54.1616 27.585C54.1616 13.9097 42.6725 2.82377 28.5 2.82377C14.3275 2.82377 2.8384 13.9097 2.8384 27.585Z" fill="#49C5ED"/>
<mask id="mask0_895_408" style="mask-type:alpha" maskUnits="userSpaceOnUse" x="28" y="0" width="29" height="56">
<rect x="28" width="28.8346" height="55.17" fill="#C4C4C4"/>
</mask>
<g mask="url(#mask0_895_408)">
<path d="M25.4876 0.104841C29.2598 -0.210883 33.0601 0.187279 36.6714 1.27659C40.2828 2.3659 43.6345 4.12503 46.5352 6.45354C49.4359 8.78205 51.8288 11.6343 53.5773 14.8475C55.3258 18.0608 56.3956 21.572 56.7256 25.1807C57.0556 28.7894 56.6394 32.425 55.5007 35.8799C54.3621 39.3347 52.5233 42.5412 50.0893 45.3162C47.6553 48.0912 44.6738 50.3804 41.315 52.0531C37.9563 53.7258 34.286 54.7492 30.5138 55.0649L30.2635 52.3281C33.66 52.0438 36.9647 51.1223 39.989 49.6162C43.0133 48.1101 45.6978 46.0489 47.8894 43.5503C50.081 41.0517 51.7367 38.1645 52.7619 35.0537C53.7872 31.943 54.1619 28.6695 53.8648 25.4201C53.5676 22.1708 52.6044 19.0093 51.03 16.1161C49.4557 13.2229 47.3011 10.6547 44.6893 8.55808C42.0775 6.46147 39.0596 4.87754 35.8079 3.89672C32.5562 2.91589 29.1344 2.55738 25.7379 2.84166L25.4876 0.104841Z" fill="#49C5ED"/>
</g>
<path d="M20.9331 26.685C20.6886 26.4406 20.5664 26.1295 20.5664 25.7517C20.5664 25.3739 20.6886 25.0628 20.9331 24.8184L27.0664 18.685C27.1997 18.5517 27.3442 18.4575 27.4997 18.4024C27.6553 18.3464 27.822 18.3184 27.9997 18.3184C28.1775 18.3184 28.3442 18.3464 28.4997 18.4024C28.6553 18.4575 28.7997 18.5517 28.9331 18.685L35.0664 24.8184C35.3108 25.0628 35.4384 25.3681 35.4491 25.7344C35.4606 26.1015 35.3331 26.4184 35.0664 26.685C34.822 26.9295 34.5108 27.0517 34.1331 27.0517C33.7553 27.0517 33.4442 26.9295 33.1997 26.685L27.9997 21.5184L22.7997 26.685C22.5553 26.9295 22.2495 27.0575 21.8824 27.069C21.5162 27.0797 21.1997 26.9517 20.9331 26.685ZM20.9331 34.685C20.6886 34.4406 20.5664 34.1295 20.5664 33.7517C20.5664 33.3739 20.6886 33.0628 20.9331 32.8184L27.0664 26.685C27.1997 26.5517 27.3442 26.457 27.4997 26.401C27.6553 26.3459 27.822 26.3184 27.9997 26.3184C28.1775 26.3184 28.3442 26.3459 28.4997 26.401C28.6553 26.457 28.7997 26.5517 28.9331 26.685L35.0664 32.8184C35.3108 33.0628 35.4384 33.3681 35.4491 33.7344C35.4606 34.1015 35.3331 34.4184 35.0664 34.685C34.822 34.9295 34.5108 35.0517 34.1331 35.0517C33.7553 35.0517 33.4442 34.9295 33.1997 34.685L27.9997 29.5184L22.7997 34.685C22.5553 34.9295 22.2495 35.0575 21.8824 35.069C21.5162 35.0797 21.1997 34.9517 20.9331 34.685Z" fill="#010101"/>
</svg>
