<svg width="7" height="17" viewBox="0 0 7 17" fill="none" xmlns="http://www.w3.org/2000/svg">
<g clip-path="url(#clip0_900_837)">
<g clip-path="url(#clip1_900_837)">
<g clip-path="url(#clip2_900_837)">
<path d="M1.38193 16.163C1.20893 16.047 1.30393 15.858 1.30293 15.709C1.29293 13.559 1.29293 11.409 1.29093 9.25803C1.10354 9.21909 0.911229 9.20965 0.72093 9.23003C0.488099 9.26066 0.251343 9.2374 0.0289297 9.16203L0.00292969 7.08003V7.03203C0.00292969 6.92303 0.0249297 6.83203 0.16993 6.86503C0.411508 6.84708 0.653949 6.84374 0.89593 6.85503C1.20693 6.88703 1.31893 6.78303 1.30993 6.40203C1.25637 5.80706 1.27754 5.20773 1.37293 4.61803C1.35573 4.10216 1.52281 3.59703 1.84422 3.19316C2.16563 2.78929 2.62037 2.51308 3.12693 2.41403C3.19096 2.38332 3.26243 2.37152 3.33293 2.38003C3.41348 2.39341 3.49616 2.37744 3.56593 2.33503L3.76593 2.32403C4.09593 2.29703 4.42093 2.28003 4.74693 2.28003H4.81593C5.12927 2.28063 5.44237 2.29765 5.75393 2.33103C5.81728 3.09271 5.81728 3.85834 5.75393 4.62003C5.34493 4.63203 4.93493 4.62703 4.52693 4.66203C4.22693 4.68803 3.90393 4.71803 3.88293 5.19703C3.88293 5.64203 3.88293 6.08803 3.87093 6.53303C3.86393 6.77403 3.94293 6.85803 4.15293 6.85203C4.45293 6.84403 4.74693 6.84503 5.04393 6.85203H5.56793C5.71593 6.85203 5.83393 6.85203 5.80593 7.09503C5.73209 7.70395 5.67174 8.31443 5.62493 8.92603C5.60493 9.20003 5.49093 9.24603 5.28393 9.23703C5.13993 9.23103 4.99493 9.23703 4.84993 9.23703C4.65756 9.24457 4.46492 9.24123 4.27293 9.22703C3.95593 9.19703 3.86193 9.31103 3.86493 9.68203C3.88093 11.695 3.87393 13.708 3.86493 15.722C3.86493 15.866 3.92793 16.03 3.80593 16.156C3.42693 16.185 3.04693 16.196 2.66793 16.196C2.23914 16.1905 1.81044 16.1795 1.38193 16.163ZM0.94693 6.97103C0.997062 6.97658 1.04659 6.98662 1.09493 7.00103H1.14093C1.16493 7.00103 1.09993 6.90103 1.10793 6.96303H1.04293C1.01081 6.96402 0.978768 6.96669 0.94693 6.97103ZM1.46193 6.64603C1.46693 6.64603 1.46193 6.63803 1.44593 6.64603C1.42993 6.65403 1.42593 6.64603 1.42393 6.62803C1.42393 6.65903 1.45293 6.65203 1.46193 6.64603ZM1.41393 6.38003C1.41393 6.45403 1.41393 6.52903 1.42293 6.60403C1.42993 6.45403 1.42993 6.30403 1.42793 6.15503C1.42491 6.23012 1.42025 6.30514 1.41393 6.38003Z" fill="#475994"/>
</g>
</g>
</g>
<defs>
<clipPath id="clip0_900_837">
<rect width="6.63" height="13.91" fill="white" transform="translate(0 2.28003)"/>
</clipPath>
<clipPath id="clip1_900_837">
<rect width="6.63" height="13.91" fill="white" transform="translate(0 2.28003)"/>
</clipPath>
<clipPath id="clip2_900_837">
<rect width="6.624" height="13.91" fill="white" transform="translate(0.00292969 2.28003)"/>
</clipPath>
</defs>
</svg>
