<svg width="15" height="17" viewBox="0 0 15 17" fill="none" xmlns="http://www.w3.org/2000/svg">
<g clip-path="url(#clip0_900_856)">
<g clip-path="url(#clip1_900_856)">
<g clip-path="url(#clip2_900_856)">
<path d="M7.41078 16.169C6.62002 16.1415 5.82854 16.1415 5.03778 16.169H4.64778C4.48114 16.1617 4.31423 16.1634 4.14778 16.174C3.24713 16.1358 2.3927 15.7648 1.74985 15.1328C1.107 14.5008 0.721434 13.6529 0.667777 12.753C0.49746 10.4452 0.49746 8.12789 0.667777 5.82003C0.734851 4.89615 1.14438 4.03058 1.81618 3.39281C2.48798 2.75505 3.37366 2.39102 4.29978 2.37203C5.33378 2.3107 6.36778 2.28003 7.40178 2.28003H7.65878C8.69878 2.28003 9.73878 2.31103 10.7788 2.37303C11.5595 2.39606 12.3122 2.66878 12.9265 3.15113C13.5408 3.63349 13.9842 4.30008 14.1918 5.05303C14.3798 5.53924 14.4642 6.05932 14.4398 6.58003C14.4491 7.2887 14.4538 7.99803 14.4538 8.70803V9.22703C14.4538 10.171 14.4478 11.113 14.4448 12.057C14.4335 12.225 14.4108 12.3921 14.3768 12.557C14.3757 13.2794 14.154 13.9843 13.7414 14.5773C13.3287 15.1702 12.7448 15.623 12.0678 15.875C10.9945 16.1071 9.89767 16.2129 8.79978 16.19C8.33978 16.19 7.87278 16.18 7.41078 16.169ZM8.19678 15.269C7.73378 15.269 7.27178 15.26 6.80978 15.25C7.27278 15.258 7.73978 15.266 8.19778 15.266L8.19678 15.269ZM5.77978 15.138C5.21553 15.1616 4.65082 15.1043 4.10278 14.968C4.65123 15.1038 5.21633 15.16 5.78078 15.135L5.77978 15.138ZM10.8858 15.138C11.3366 15.0789 11.7677 14.9167 12.1458 14.664C11.7675 14.9143 11.3367 15.0744 10.8868 15.132L10.8858 15.138ZM10.1768 14.994C10.6272 15.0194 11.0778 14.947 11.4976 14.7818C11.9173 14.6166 12.2964 14.3625 12.6088 14.037L13.0698 13.115C13.0661 12.9365 13.0915 12.7585 13.1448 12.588C13.15 12.5729 13.1571 12.5585 13.1658 12.545C13.1597 12.533 13.157 12.5196 13.1581 12.5062C13.1591 12.4928 13.1639 12.4799 13.1718 12.469C13.1718 10.3704 13.1738 8.27036 13.1778 6.16903C13.1598 6.09503 13.1358 6.02103 13.1218 5.94503C13.0879 5.32196 12.8159 4.73574 12.3619 4.30764C11.9079 3.87954 11.3068 3.64231 10.6828 3.64503C9.86605 3.56499 9.04491 3.53926 8.22478 3.56803C7.92478 3.56803 7.62478 3.57603 7.32478 3.57503C6.26739 3.53057 5.2082 3.5593 4.15478 3.66103C3.68468 3.6925 3.23461 3.86331 2.86201 4.15166C2.4894 4.44002 2.21116 4.83285 2.06278 5.28003C1.91347 5.71869 1.84041 6.17969 1.84678 6.64303V11.92C1.84839 12.3055 1.89538 12.6895 1.98678 13.064C2.10475 13.5527 2.36729 13.9944 2.74013 14.3315C3.11296 14.6687 3.57878 14.8856 4.07678 14.954C6.11078 15.043 8.13978 15.059 10.1778 14.989L10.1768 14.994ZM13.1268 12.901C13.1268 12.842 13.1188 12.782 13.1188 12.723C13.1228 12.78 13.1308 12.842 13.1308 12.901H13.1268ZM13.1768 12.845C13.1768 12.763 13.1608 12.678 13.1608 12.595C13.1648 12.68 13.1808 12.762 13.1808 12.845H13.1768ZM13.2208 12.234C13.2208 12.16 13.2118 12.086 13.2118 12.013C13.2158 12.08 13.2248 12.159 13.2248 12.233L13.2208 12.234ZM13.2658 12.234C13.2658 12.183 13.2608 12.134 13.2608 12.081C13.2648 12.129 13.2698 12.18 13.2698 12.232L13.2658 12.234ZM14.3658 11.788C14.3573 11.4548 14.3533 11.1214 14.3538 10.788C14.3618 11.12 14.3638 11.452 14.3738 11.786L14.3658 11.788ZM13.2248 6.39403C13.2268 6.31693 13.2115 6.24035 13.1798 6.17003C13.211 6.24013 13.226 6.31634 13.2238 6.39303L13.2248 6.39403ZM4.66978 11.435C4.28413 10.9485 4.03998 10.3651 3.96412 9.74893C3.88827 9.13274 3.98364 8.50757 4.23978 7.94203C4.45538 7.36235 4.82711 6.8536 5.31385 6.47204C5.80059 6.09048 6.38339 5.85098 6.99778 5.78003C7.52044 5.65067 8.07084 5.69274 8.56778 5.90003C9.32976 6.11135 9.99648 6.57708 10.4571 7.21981C10.9177 7.86254 11.1445 8.64355 11.0998 9.43303C11.0861 10.262 10.7772 11.0589 10.2286 11.6804C9.67995 12.302 8.92761 12.7075 8.10678 12.824L7.94178 12.843C7.75929 12.8694 7.57516 12.8828 7.39078 12.883C6.85363 12.8813 6.32502 12.7486 5.85083 12.4962C5.37665 12.2439 4.97123 11.8796 4.66978 11.435ZM7.42578 12.817C7.42472 12.8121 7.42472 12.807 7.42578 12.802C7.42658 12.8076 7.42827 12.813 7.43078 12.818L7.42578 12.817ZM8.07878 12.809C8.0095 12.7668 7.93081 12.7424 7.84978 12.738C7.93244 12.7412 8.01294 12.7653 8.08378 12.808L8.07878 12.809ZM5.22978 9.31203C5.22528 9.61541 5.28103 9.91667 5.39381 10.1983C5.50659 10.48 5.67415 10.7365 5.88678 10.953C6.09941 11.1694 6.35289 11.3415 6.63252 11.4593C6.91214 11.577 7.21236 11.6381 7.51578 11.639C8.12526 11.6326 8.70788 11.3873 9.1384 10.9558C9.56892 10.5243 9.81297 9.94116 9.81808 9.33166C9.82319 8.72217 9.58895 8.135 9.16572 7.69637C8.7425 7.25775 8.16407 7.00269 7.55478 6.98603H7.53978C7.23336 6.97983 6.92888 7.03587 6.64476 7.15078C6.36064 7.26568 6.10279 7.43705 5.88683 7.65451C5.67087 7.87196 5.50128 8.13099 5.38834 8.41589C5.2754 8.7008 5.22146 9.00567 5.22978 9.31203ZM11.1828 6.36603C11.0751 6.36641 10.9685 6.34462 10.8697 6.30201C10.7708 6.2594 10.6818 6.19688 10.6081 6.11836C10.5345 6.03983 10.4778 5.94698 10.4416 5.84559C10.4054 5.7442 10.3905 5.63644 10.3978 5.52903C10.4031 5.3125 10.4913 5.10628 10.6443 4.95294C10.7973 4.79961 11.0033 4.71086 11.2198 4.70503C11.4355 4.72035 11.6383 4.81344 11.7906 4.967C11.9429 5.12057 12.0343 5.32418 12.0478 5.54003C12.0418 5.76042 11.9505 5.96987 11.793 6.12417C11.6355 6.27847 11.4242 6.36555 11.2038 6.36703L11.1828 6.36603Z" fill="url(#paint0_linear_900_856)"/>
</g>
</g>
</g>
<defs>
<linearGradient id="paint0_linear_900_856" x1="0.540039" y1="2.28003" x2="11.7538" y2="16.1936" gradientUnits="userSpaceOnUse">
<stop stop-color="#0027FF"/>
<stop offset="0.335" stop-color="#FF270A"/>
<stop offset="0.685" stop-color="#FF3915"/>
<stop offset="1" stop-color="#FFD008"/>
</linearGradient>
<clipPath id="clip0_900_856">
<rect width="13.91" height="13.91" fill="white" transform="translate(0.540039 2.28003)"/>
</clipPath>
<clipPath id="clip1_900_856">
<rect width="13.91" height="13.91" fill="white" transform="translate(0.540039 2.28003)"/>
</clipPath>
<clipPath id="clip2_900_856">
<rect width="13.91" height="13.91" fill="white" transform="translate(0.540039 2.28003)"/>
</clipPath>
</defs>
</svg>
