<svg width="15" height="17" viewBox="0 0 15 17" fill="none" xmlns="http://www.w3.org/2000/svg">
<g clip-path="url(#clip0_900_850)">
<g clip-path="url(#clip1_900_850)">
<g clip-path="url(#clip2_900_850)">
<path d="M3.74424 16.191H0.860239V6.90399H3.74424V16.191ZM2.30024 5.63699C1.96837 5.63857 1.64348 5.5417 1.36666 5.35863C1.08984 5.17557 0.873526 4.91453 0.745064 4.60852C0.616602 4.30252 0.581766 3.96529 0.64496 3.63949C0.708154 3.31369 0.86654 3.01394 1.10009 2.77815C1.33364 2.54236 1.63186 2.38113 1.95705 2.31483C2.28224 2.24853 2.61978 2.28015 2.92699 2.40569C3.23421 2.53123 3.4973 2.74505 3.683 3.02011C3.86869 3.29517 3.96865 3.61912 3.97024 3.95099C3.97078 4.39554 3.79552 4.82228 3.48267 5.13812C3.16983 5.45397 2.74478 5.63329 2.30024 5.63699ZM14.5372 16.191H11.6602V11.67C11.6602 10.593 11.6382 9.21099 10.1602 9.21099C8.66124 9.21099 8.43024 10.38 8.43024 11.592V16.192H5.55024V6.90399H8.31624V8.17099H8.35624C8.63279 7.6974 9.03269 7.30774 9.51329 7.04358C9.9939 6.77941 10.5372 6.65064 11.0852 6.67099C14.0042 6.67099 14.5402 8.59299 14.5402 11.089V16.189L14.5372 16.191Z" fill="#0E79B2"/>
</g>
</g>
</g>
<defs>
<clipPath id="clip0_900_850">
<rect width="13.91" height="13.91" fill="white" transform="translate(0.629883 2.28003)"/>
</clipPath>
<clipPath id="clip1_900_850">
<rect width="13.91" height="13.91" fill="white" transform="translate(0.629883 2.28003)"/>
</clipPath>
<clipPath id="clip2_900_850">
<rect width="13.91" height="13.91" fill="white" transform="translate(0.629883 2.28003)"/>
</clipPath>
</defs>
</svg>
