<svg xmlns="http://www.w3.org/2000/svg" width="216" height="86" viewBox="0 0 216 86"><defs><clipPath id="clip-path"><path id="Rectangle_1152" fill="none" d="M0 0h115.21v36.438H0z" data-name="Rectangle 1152"/></clipPath></defs><g id="Group_2304" data-name="Group 2304" transform="translate(6175 -3407)"><g id="Group_2263" data-name="Group 2263" transform="translate(-6126 3431)"><g id="Group_2212" clip-path="url(#clip-path)" data-name="Group 2212"><path id="Path_2182" fill="#fff" d="M4.348 36.438a3.9 3.9 0 0 1-1.271-.212 4.293 4.293 0 0 1-2.629-2.818 11.427 11.427 0 0 1-.4-4.442 13.6 13.6 0 0 1 .44-2.612 30.268 30.268 0 0 1 .877-3.536A63.116 63.116 0 0 1 4.8 14.126a65.159 65.159 0 0 1 4.353-7.911 30.009 30.009 0 0 1 3.6-4.658A6.582 6.582 0 0 1 14.451.3 2.441 2.441 0 0 1 17 .434a11.384 11.384 0 0 1 2.734 2.588 41.5 41.5 0 0 1 3.515 5.142 72.831 72.831 0 0 1 3.429 6.578l.149.317.084-.181A63.946 63.946 0 0 1 32.778 4.51a19.653 19.653 0 0 1 2.478-2.98A8.349 8.349 0 0 1 36.622.441a2.65 2.65 0 0 1 3.37.411 18.346 18.346 0 0 1 3.473 3.934A57.9 57.9 0 0 1 47.1 10.77a72.368 72.368 0 0 1 3.172 6.73A52.8 52.8 0 0 1 53 25.784a17.786 17.786 0 0 1 .379 2.152 11.949 11.949 0 0 1-.224 5.367A4.3 4.3 0 0 1 50.54 36.2a4.448 4.448 0 0 1-3.941-.621 10.935 10.935 0 0 1-3.032-3.179 36.291 36.291 0 0 1-3.785-7.6 62.473 62.473 0 0 1-1.765-5.357c-.119.414-.237.812-.35 1.189a53.725 53.725 0 0 1-3.33 8.586 18.812 18.812 0 0 1-3.84 5.528A5.973 5.973 0 0 1 28 36.257a4.378 4.378 0 0 1-4.107-.969l-.169-.143a12.429 12.429 0 0 1-3.273-3.924 46.377 46.377 0 0 1-4.322-10.176 63.397 63.397 0 0 1-.524-1.771l-.055.2a57.725 57.725 0 0 1-2.88 8.039 31.194 31.194 0 0 1-2.721 5.01A11.285 11.285 0 0 1 6.9 35.62a4.651 4.651 0 0 1-2.555.819m8.916-32.828a31.941 31.941 0 0 0-2.634 3.566 63.58 63.58 0 0 0-4.235 7.7 61.635 61.635 0 0 0-3.342 8.451 29.265 29.265 0 0 0-.842 3.4 12.265 12.265 0 0 0-.4 2.349 9.866 9.866 0 0 0 .311 3.768 2.583 2.583 0 0 0 1.531 1.716 2.6 2.6 0 0 0 2.284-.412A9.612 9.612 0 0 0 8.5 31.512a29.6 29.6 0 0 0 2.562-4.732 55.886 55.886 0 0 0 2.791-7.794c.22-.774.427-1.55.633-2.328l1.476-5.47.553 4.637c.409 1.628.812 3.165 1.29 4.695a44.834 44.834 0 0 0 4.155 9.8 10.8 10.8 0 0 0 2.769 3.371l.277.232a2.634 2.634 0 0 0 2.523.632 4.285 4.285 0 0 0 1.767-1.093 17.21 17.21 0 0 0 3.467-5.027 51.888 51.888 0 0 0 3.219-8.308c.37-1.233.8-2.7 1.146-4.223l.547-2.365 1.1 2.165a1.649 1.649 0 0 1 .2.462 66.939 66.939 0 0 0 2.452 8.006 34.756 34.756 0 0 0 3.6 7.24 9.285 9.285 0 0 0 2.545 2.692 2.686 2.686 0 0 0 2.382.43 2.583 2.583 0 0 0 1.522-1.765 10.354 10.354 0 0 0 .158-4.606v-.036a16.272 16.272 0 0 0-.345-1.953 51.243 51.243 0 0 0-2.639-8.008 70.74 70.74 0 0 0-3.1-6.569A56.143 56.143 0 0 0 42.024 5.8a16.75 16.75 0 0 0-3.13-3.568c-.795-.635-.979-.519-1.34-.293a6.7 6.7 0 0 0-1.079.864 18.092 18.092 0 0 0-2.257 2.723 62.241 62.241 0 0 0-5.7 10.085l-.154.329a6.091 6.091 0 0 0-.425 1.056l-.055.215-.149.164a1.284 1.284 0 0 1-.842.683l-1.2.281.111-1.129-.055-.138a7.8 7.8 0 0 0-.506-1.242l-.163-.344a71.12 71.12 0 0 0-3.345-6.42 39.676 39.676 0 0 0-3.366-4.925 9.661 9.661 0 0 0-2.289-2.21.7.7 0 0 0-.814-.068 4.707 4.707 0 0 0-.21.116V4.7l-1.505-.8Z" data-name="Path 2182"/><path id="Path_2183" fill="#1d1a1b" d="M55.145 18.176c.561-1.68 1.094-3.282 1.63-4.883.468-1.4.945-2.792 1.4-4.193a.385.385 0 0 1 .441-.311c.811.015 1.622.01 2.433 0 .224 0 .345.029.361.307.053.9.142 1.807.215 2.71.173 2.113.355 4.225.514 6.339.081 1.071.114 2.146.181 3.218.012.215-.065.258-.26.256a54.299 54.299 0 0 0-1.893 0c-.225 0-.286-.088-.3-.291-.077-1.083-.161-2.166-.243-3.249q-.2-2.619-.391-5.236c0-.031-.034-.058-.075-.127a12.051 12.051 0 0 0-.624 1.564q-1.17 3.408-2.315 6.824c-.128.385-.3.58-.734.539a11.618 11.618 0 0 0-1.426-.022c-.24.007-.319-.082-.391-.3a328.819 328.819 0 0 0-1.753-5.214c-.37-1.069-.781-2.125-1.179-3.186a.288.288 0 0 0-.168-.215c-.082 1.223-.16 2.433-.246 3.643-.119 1.669-.245 3.337-.365 5.007-.014.19-.094.266-.293.262q-.81-.017-1.622 0c-.214 0-.307-.061-.292-.286.088-1.3.165-2.6.255-3.9.063-.918.139-1.835.211-2.751l.442-5.615c.011-.154.066-.215.232-.23.9-.083 1.8-.016 2.7-.051.263-.01.292.178.345.327.356.992.715 1.986 1.042 2.988.637 1.959 1.259 3.922 2.03 5.834.024.058.063.111.135.237" data-name="Path 2183" transform="translate(11.559 2.128)"/><path id="Path_2184" fill="#1d1a1b" d="M64.917 17.84c.456-1.061.744-2.17 1.1-3.253.263-.8.492-1.6.734-2.407a.322.322 0 0 1 .359-.265c.655.012 1.309 0 1.979 0-.378 1.329-.866 2.623-1.329 3.926-.643 1.807-1.3 3.608-1.965 5.409a5.7 5.7 0 0 1-1.228 2.167 2.865 2.865 0 0 1-2.2.814c-.965-.01-.964 0-1.15-.915-.061-.3-.237-.668-.1-.888.153-.247.561-.071.857-.1a1.655 1.655 0 0 0 1.135-.363 1.362 1.362 0 0 0 .379-1.755q-1.4-3.771-2.776-7.55c-.216-.6-.206-.606.422-.689.468-.062.941-.091 1.408-.16.272-.041.375.071.455.313.586 1.813 1.186 3.623 1.779 5.434a.6.6 0 0 0 .139.274" data-name="Path 2184" transform="translate(14.665 2.859)"/><path id="Path_2185" fill="#1d1a1b" d="M70.743 13.064a6.9 6.9 0 0 1 1.907-1.16 2.7 2.7 0 0 1 3.244.893 2.628 2.628 0 0 1 .369 1.385c.01 2.131 0 4.264.011 6.4 0 .282-.1.35-.356.342a18.885 18.885 0 0 0-1.467 0c-.293.015-.383-.067-.4-.371-.094-1.513-.015-3.027-.043-4.54-.006-.347-.043-.7-.016-1.038.088-1.087-.907-1.428-1.776-1.094a3.128 3.128 0 0 0-.848.5 1.214 1.214 0 0 0-.491.975c-.041 1.6.009 3.208.006 4.813 0 .128-.014.257-.007.384.015.27-.075.386-.375.371a21.344 21.344 0 0 0-1.62 0c-.237 0-.307-.081-.306-.314q.009-4.2 0-8.4c0-.2.029-.3.266-.291.474.021.951.026 1.427 0 .219-.009.255.107.288.263l.189.883" data-name="Path 2185" transform="translate(16.598 2.835)"/><path id="Path_2186" fill="#1d1a1b" d="M77.157 17.038c0-.758-.006-1.517 0-2.274 0-.237-.026-.378-.324-.392-.226-.011-.457-.046-.687-.058-.2-.012-.322-.093-.276-.309a5.332 5.332 0 0 0 .046-1.185c0-.245.1-.315.314-.325.191-.01.381-.055.571-.051.268.006.373-.068.36-.368-.026-.667.019-1.336-.012-2-.015-.337.118-.451.416-.487q.818-.1 1.632-.222c.258-.039.191.15.193.268.006.81.022 1.62-.006 2.428-.012.335.1.4.4.389.409-.016.819.036 1.228.043.164 0 .211.06.234.22.061.455.144.907.23 1.358.034.179 0 .245-.2.248-.525.01-1.05.056-1.575.066-.2 0-.261.055-.265.26-.024 1.331-.1 2.662 0 3.993.047.632.272.882.91.953.3.034.7-.032.883.135s.158.565.212.864c.166.918.161.9-.766 1.007a5.135 5.135 0 0 1-1.637-.078 2.167 2.167 0 0 1-1.854-2.284c-.042-.729-.009-1.463-.009-2.195h-.027" data-name="Path 2186" transform="translate(18.363 2.265)"/><path id="Path_2187" fill="#a63182" d="M45.413 27.54a11.093 11.093 0 0 1-.19 5 3.267 3.267 0 0 1-5.229 1.8 10.229 10.229 0 0 1-2.787-2.932 36.121 36.121 0 0 1-3.693-7.42 67.948 67.948 0 0 1-2.487-8.113 1.272 1.272 0 0 0-.133-.271 8.144 8.144 0 0 1-.325-1.384 56.328 56.328 0 0 1-1.1-6.654 34.617 34.617 0 0 1-.176-3.46c0-.4.089-.791.1-1.19a1.865 1.865 0 0 1 1.852-.8 4.151 4.151 0 0 1 1.687 1.048A29.379 29.379 0 0 1 37.5 9.012a61.257 61.257 0 0 1 3.474 6.226 62.751 62.751 0 0 1 3.006 7.22 33.044 33.044 0 0 1 1.236 4.207 3.251 3.251 0 0 0 .193.874" data-name="Path 2187" transform="translate(7.091 .503)"/><path id="Path_2188" fill="#e24900" d="M32.033 2.7a6.6 6.6 0 0 1-.057 1.063 32.511 32.511 0 0 0 .237 4.343 59.816 59.816 0 0 0 1.12 6.366 1.781 1.781 0 0 1 .122.99c-.333 1.44-.737 2.86-1.161 4.276a53.087 53.087 0 0 1-3.274 8.448 17.906 17.906 0 0 1-3.654 5.276 5.18 5.18 0 0 1-2.134 1.3 3.537 3.537 0 0 1-3.316-.8c-.079-.065-.156-.133-.234-.2a6.759 6.759 0 0 1-.862-2.728 13.888 13.888 0 0 1 .207-4.4 42.362 42.362 0 0 1 2.058-7.247c.287-.811.589-1.616.873-2.427a.791.791 0 0 1 .2-.406c.225-.053.263-.279.394-.421 1.139-1.861 2.1-3.824 3.255-5.675a54.191 54.191 0 0 1 3.953-5.693 12.479 12.479 0 0 1 1.914-1.944c.1-.079.189-.232.359-.12" data-name="Path 2188" transform="translate(4.531 .644)"/><path id="Path_2189" fill="#a63182" d="M15.456 15.169c-.308 1.143-.6 2.289-.928 3.428a56.83 56.83 0 0 1-2.836 7.916 30.315 30.315 0 0 1-2.642 4.873 10.569 10.569 0 0 1-2.8 2.869A3.242 3.242 0 0 1 1.11 32.5a10.581 10.581 0 0 1-.354-4.1 12.808 12.808 0 0 1 .414-2.446 3.6 3.6 0 0 0 .277-.934 66.422 66.422 0 0 1 2.9-7.789A65.2 65.2 0 0 1 8.4 9.527a39.461 39.461 0 0 1 3.436-4.879A11.964 11.964 0 0 1 13.7 2.763c.1-.079.214-.272.371-.052a.972.972 0 0 1 .043.381 44.87 44.87 0 0 0 1.227 11.022 1.957 1.957 0 0 1 .111 1.055" data-name="Path 2189" transform="translate(.172 .631)"/><path id="Path_2190" fill="#f5870d" d="M12.868 15.3a117.433 117.433 0 0 1-.764-3.823 56.758 56.758 0 0 1-.527-3.526 31.946 31.946 0 0 1-.164-4.25c.006-.308 0-.616 0-.924-.052-.093.016-.149.075-.19A2.074 2.074 0 0 1 13.8 2.3a8.816 8.816 0 0 1 2.371 2.066 54.587 54.587 0 0 1 5.689 8.462c.539.935 1.081 1.868 1.616 2.8.119.21.153.465.345.632a.971.971 0 0 1 .117.438 10.535 10.535 0 0 1-.615 1.851 54.635 54.635 0 0 0-2.3 7.581 19.86 19.86 0 0 0-.409 3.835 10.286 10.286 0 0 0 .776 3.726c.026.071.046.144.07.216a11.463 11.463 0 0 1-3.009-3.635 46.434 46.434 0 0 1-4.238-9.99 91.895 91.895 0 0 1-1.3-4.68 2.463 2.463 0 0 1-.037-.3" data-name="Path 2190" transform="translate(2.759 .498)"/><path id="Path_2191" fill="#8f1a27" d="M31.285 3.174a7.189 7.189 0 0 0-1.7 1.535 38.028 38.028 0 0 0-3.352 4.561q-1.513 2.331-2.851 4.765a23.083 23.083 0 0 1-1.269 2.231 3.776 3.776 0 0 1-.306.342 9.087 9.087 0 0 1 .631-1.535 63.542 63.542 0 0 1 5.78-10.227 19.24 19.24 0 0 1 2.367-2.852 7.592 7.592 0 0 1 1.223-.976c.815-.508 1.416-.4 2.355.352a17.451 17.451 0 0 1 3.3 3.751 57.715 57.715 0 0 1 3.576 5.895 71.369 71.369 0 0 1 3.139 6.651 52.475 52.475 0 0 1 2.682 8.144 16.52 16.52 0 0 1 .364 2.061c0 .012-.009.025-.014.037-.015.037-.06.063-.066.017a16.743 16.743 0 0 0-.462-1.986 48.744 48.744 0 0 0-1.671-5.022 63.313 63.313 0 0 0-2.964-6.609 63.334 63.334 0 0 0-4.207-7.023 22.625 22.625 0 0 0-3.3-3.848 3.8 3.8 0 0 0-1.558-.91 1.228 1.228 0 0 0-.905.142 2.518 2.518 0 0 0-.791.5" data-name="Path 2191" transform="translate(5.279 .171)"/><path id="Path_2192" fill="#8f1a27" d="M26.315 16.588c-.311-.108-.343-.432-.478-.66-.918-1.551-1.79-3.129-2.714-4.676a46.573 46.573 0 0 0-4.343-6.269 10.349 10.349 0 0 0-2.172-2.051c-.884-.58-1.507-.712-2.693.171a13.391 13.391 0 0 0-2.433 2.469 37.793 37.793 0 0 0-2.418 3.4c-.917 1.426-1.76 2.9-2.574 4.383a62.344 62.344 0 0 0-1.883 3.777q-1.082 2.338-1.959 4.763c-.543 1.493-1.059 3-1.481 4.53a.3.3 0 0 1-.031.06 1.927 1.927 0 0 1-.057-.078 30.313 30.313 0 0 1 .867-3.5 62.908 62.908 0 0 1 3.388-8.577 64.59 64.59 0 0 1 4.3-7.806A29.776 29.776 0 0 1 13.128 2 5.75 5.75 0 0 1 14.6.911a1.574 1.574 0 0 1 1.684.1 10.426 10.426 0 0 1 2.514 2.4 40.755 40.755 0 0 1 3.44 5.034 71.654 71.654 0 0 1 3.386 6.5 10.882 10.882 0 0 1 .694 1.647" data-name="Path 2192" transform="translate(.261 .172)"/><path id="Path_2193" fill="#1d1a1b" d="M83.951 13.4a8.916 8.916 0 0 1 1.612-1.3c.034-.019.061-.05.094-.066a1.694 1.694 0 0 1 1.009-.289c.4.1.26.579.347.9a.931.931 0 0 1 .042.147 2.621 2.621 0 0 1 .072 1.021c-.116.338-.592.229-.9.361a8.513 8.513 0 0 0-1.163.565 2.135 2.135 0 0 0-1.033 2.061c.053 1.256.006 2.515.02 3.773 0 .274-.084.355-.353.347a24.543 24.543 0 0 0-1.582 0c-.253.006-.361-.05-.36-.339q.017-4.181 0-8.363c0-.229.042-.317.292-.3.462.021.927.021 1.389 0 .24-.012.3.075.327.294.041.388.118.773.186 1.2" data-name="Path 2193" transform="translate(19.789 2.838)"/><path id="Path_2194" fill="#1d1a1b" d="M91.605 11.757a10.614 10.614 0 0 0-4.115.54.294.294 0 0 0-.248.385c.063.442.125.886.173 1.329.022.216.109.2.276.143.3-.107.607-.19.914-.279A5.376 5.376 0 0 1 90.9 13.6a1.244 1.244 0 0 1 1.13 1.279c0 .159-.083.185-.214.2-.329.05-.653.122-.982.171a8.162 8.162 0 0 0-2.811.837 2.762 2.762 0 0 0-.609 4.419 2.962 2.962 0 0 0 3.049.343 6.579 6.579 0 0 0 1.694-.935c.052.279.093.506.137.732.035.176.1.282.323.268.424-.024.85-.02 1.274 0 .263.011.355-.066.354-.344 0-1.991.021-3.982.011-5.973a2.606 2.606 0 0 0-2.649-2.842m-.021 7a2.522 2.522 0 0 1-2.188.477 1.125 1.125 0 0 1-.221-1.767 3.368 3.368 0 0 1 1.871-.871c.224-.046.453-.065.674-.122s.267.039.258.234c-.01.256 0 .512 0 .769v.154c-.021.411.128.851-.391 1.127" data-name="Path 2194" transform="translate(20.953 2.837)"/></g></g><path id="Rectangle_1216" fill="none" d="M0 0h216v86H0z" data-name="Rectangle 1216" transform="translate(-6175 3407)"/></g></svg>