<svg xmlns="http://www.w3.org/2000/svg" id="Layer_1" data-name="Layer 1" version="1.1" viewBox="0 0 1920 497.6"><defs><linearGradient id="linear-gradient" x1="298.8" x2="296.4" y1="33.2" y2="460.4" gradientUnits="userSpaceOnUse"><stop offset="0" stop-color="#47c5ea"/><stop offset="1" stop-color="#9ad094"/></linearGradient><clipPath id="clippath"><path d="M1733.7 191.2h-46.9l-43.3-81.1c-3.8-7.2 1.8-15.6 10.4-15.6h21.1c4.4 0 8.4 2.3 10.4 6l48.5 90.7Z" style="fill:none;stroke-width:0"/></clipPath><style>.cls-10,.cls-12,.cls-13,.cls-17,.cls-19,.cls-2,.cls-21,.cls-25,.cls-26,.cls-3,.cls-9{stroke-width:0}.cls-2{fill:#010101}.cls-3{fill:#49b8e2}.cls-28{fill:#000;stroke:#000;stroke-miterlimit:10;stroke-width:1.7px}.cls-9{fill:#919191}.cls-10{fill:#49bce4}.cls-12{fill:#231f20}.cls-13{fill:#47c5ea}.cls-17{fill:#49bae3}.cls-19{fill:#49bfe6}.cls-21{fill:#fff}.cls-25{fill:#217293}.cls-26{fill:#49b7e1}</style></defs><path d="M627.9 223.9h-26.2v63.8h-45.3V94.5h94.1c14 0 26.2 2.7 36.7 8.1 10.5 5.4 18.6 13.1 24.3 23 5.7 9.9 8.6 21.3 8.6 34.2s-3.8 27.3-11.5 37.8c-7.6 10.5-18.4 17.9-32.4 22.4l54.6 67.6H677l-49.1-63.8Zm39.7-83.6c-5.2-4.8-12.7-7.2-22.2-7.2h-43.9v54.4h43.9c9.8 0 17.2-2.3 22.4-7 5.1-4.7 7.7-11.4 7.7-20s-2.6-15.4-7.9-20.1ZM844.1 156.7c10.9 5.6 19.2 13.5 25 23.7s8.7 22.1 8.7 35.7-.5 9.8-1.4 16.3H776.2c1.3 7 5.1 12.7 11.3 17 6.3 4.3 14.3 6.5 24 6.5s13.4-1 19.9-3c6.4-2 12-4.9 16.6-8.6l22.6 24.3c-7.7 7.2-16.9 12.7-27.5 16.6-10.6 3.9-21.9 5.8-33.8 5.8s-29.5-2.9-41.1-8.7c-11.6-5.8-20.5-14-26.8-24.7-6.3-10.7-9.4-23.3-9.4-37.8s3.1-26.4 9.2-37.3c6.2-10.9 14.8-19.3 25.8-25.3s23.8-9 38.4-9 27.8 2.8 38.6 8.4Zm-58.4 32.4c-5.4 4.4-8.5 10.6-9.2 18.5h60.2c-.6-7.9-3.5-14.1-8.7-18.5s-12.3-6.6-21.1-6.6-15.7 2.2-21.1 6.6ZM886.3 273l16.6-29.8c6.6 4 14.3 7.2 23 9.4s17.4 3.3 26.1 3.3 17.9-3.2 17.9-9.7-1.7-5.8-5-7.5-8.8-2.8-16.6-3.3c-17.3-.9-31-5.2-41.3-13-10.2-7.7-15.3-17.8-15.3-30.4s5.5-24.4 16.6-32.4 25.9-12 44.7-12 20.8 1.3 30.5 3.9c9.7 2.6 18 6.2 25 10.8l-16.8 29c-10.3-5.9-22.5-8.8-36.7-8.8s-21 3.3-21 9.9 1.4 4.9 4.3 6.3c2.9 1.5 7.7 2.6 14.5 3.3 19.5 1.5 34.4 5.9 44.6 13.2 10.2 7.4 15.3 17.7 15.3 30.9s-5.6 25-16.8 33c-11.2 8-26.8 12-46.6 12s-45.1-6.1-62.9-18.2ZM1167.3 151.3v136.3h-37.5l-2.8-15.7c-5.2 6.1-11.5 10.7-18.9 13.9s-15.6 4.8-24.4 4.8c-16.7 0-30.1-5.5-40-16.6-9.9-11-14.9-26.3-14.9-45.8v-77h43.3v74.5c0 8.8 2.2 15.7 6.5 20.7s10.3 7.5 17.8 7.5 14.9-2.9 20-8.7c5.1-5.8 7.6-13.3 7.6-22.5v-71.5h43.3ZM1290.6 151.7c6.3 2.3 11.7 5.7 16.3 10.1l-18.2 31.7c-3.9-2.4-7.5-4.1-10.8-5.2-3.3-1.1-6.8-1.7-10.5-1.7-9.2 0-16.5 2.9-21.8 8.8-5.3 5.9-8 14.5-8 25.9v66.2h-43.3V151.2h37.8l3.3 17.1c8.8-13.4 21-20.1 36.4-20.1s12.5 1.2 18.8 3.5ZM1447.5 282.8c5.1 7.5 7.6 16.1 7.6 25.8s-3.1 21.5-9.4 30.2c-6.3 8.7-15.1 15.5-26.5 20.1-11.4 4.7-24.7 7-39.7 7s-27.6-2.4-38.6-7.2c-11-4.8-19.6-11.6-25.5-20.4-6-8.8-9-19-9-30.6s0-5.2.3-6.6h41.7c-.4 9 2.2 16 7.6 21 5.4 5 13.3 7.5 23.6 7.5s16.7-2.1 22.4-6.2c5.7-4.1 8.6-9.6 8.6-16.4s-2.6-12.4-7.9-16.1c-5.2-3.8-12.7-5.7-22.5-5.7-15.1 0-28.3-2.9-39.6-8.6-11.3-5.7-20.1-13.8-26.2-24.2-6.2-10.4-9.2-22.5-9.2-36.3s3.2-25.1 9.5-35.5c6.3-10.4 15.2-18.5 26.5-24.3 11.3-5.8 24.2-8.7 38.8-8.7s21.5 2.2 30.9 6.6l16-19.9 31.7 22.9-18.2 21.3c9.2 10.5 13.8 23 13.8 37.5s-2.4 19.5-7.3 28c-4.9 8.6-11.7 15.6-20.6 21.1 9.2 4.2 16.3 10.1 21.4 17.5Zm-44.5-43.1c5.9-5.9 8.8-13.7 8.8-23.5s-2.9-17.5-8.7-23.3c-5.8-5.8-13.6-8.7-23.3-8.7s-17.3 2.9-23.2 8.7c-5.9 5.8-8.8 13.6-8.8 23.3s2.9 17.3 8.8 23.3 13.6 9 23.2 9 17.3-2.9 23.2-8.8ZM1581 156.7c10.9 5.6 19.2 13.5 25 23.7s8.7 22.1 8.7 35.7-.5 9.8-1.4 16.3h-100.2c1.3 7 5.1 12.7 11.3 17 6.3 4.3 14.3 6.5 24 6.5s13.4-1 19.9-3c6.4-2 12-4.9 16.6-8.6l22.6 24.3c-7.7 7.2-16.9 12.7-27.5 16.6-10.6 3.9-21.9 5.8-33.8 5.8s-29.5-2.9-41.1-8.7-20.5-14-26.8-24.7c-6.3-10.7-9.4-23.3-9.4-37.8s3.1-26.4 9.2-37.3c6.2-10.9 14.8-19.3 25.8-25.3s23.8-9 38.4-9 27.8 2.8 38.6 8.4Zm-58.4 32.4c-5.4 4.4-8.5 10.6-9.2 18.5h60.2c-.6-7.9-3.5-14.1-8.7-18.5s-12.3-6.6-21.1-6.6-15.7 2.2-21.1 6.6Z" class="cls-12"/><g style="clip-path:url(#clippath)"><path d="m1730.3 94.5.6 12-91.3 5.2V94.5h90.7zM1730.9 106.5l.3 3.8-91.6 5.2v-3.8l91.3-5.2z" class="cls-13"/><path d="m1731.2 110.3.2 3.8-91.8 5.2v-3.8l91.6-5.2z" style="stroke-width:0;fill:#48c4e9"/><path d="m1731.4 114.1.2 3.7-92 5.2v-3.7l91.8-5.2z" style="fill:#48c3e9;stroke-width:0"/><path d="m1731.6 117.8.2 3.8-92.2 5.2V123l92-5.2z" style="fill:#48c2e8;stroke-width:0"/><path d="m1731.8 121.6.2 3.8-92.4 5.2v-3.8l92.2-5.2z" style="fill:#49c2e8;stroke-width:0"/><path d="m1732 125.4.2 3.7-92.6 5.3v-3.8l92.4-5.2z" style="fill:#49c1e7;stroke-width:0"/><path d="m1732.2 129.1.2 3.8-92.8 5.2v-3.7l92.6-5.3z" style="fill:#49c0e7;stroke-width:0"/><path d="m1732.4 132.9.2 3.7-92.8 5.3-.2-3.5v-.3l92.8-5.2zM1639.819 143.041l92.855-5.191.212 3.794-92.855 5.191z" class="cls-19"/><path d="M1640.1 143h93v3.8h-93z" style="fill:#49bee6;stroke-width:0" transform="rotate(-3.2 1706.726 146.202)"/><path d="M1640.3 146.8h93v3.8h-93z" style="fill:#49bee5;stroke-width:0" transform="rotate(-3.2 1708.416 149.832)"/><path d="M1640.5 150.6h93v3.8h-93z" style="fill:#49bde5;stroke-width:0" transform="rotate(-3.2 1708.316 153.412)"/><path d="m1640.655 158.073 92.855-5.191.212 3.794-92.855 5.191z" class="cls-10"/><path d="M1733.7 155.5V159.2l-92.6 5.3-.2-3.8 92.8-5.2z" class="cls-10"/><path d="m1733.7 163-92.4 5.2-.2-3.7 92.6-5.3v3.8z" style="fill:#49bbe4;stroke-width:0"/><path d="m1733.7 166.8-92.2 5.2-.2-3.8 92.4-5.2v3.8z" class="cls-17"/><path d="m1733.7 170.6-92 5.2-.2-3.8 92.2-5.2v3.8z" class="cls-17"/><path d="m1733.7 174.3-91.7 5.2-.3-3.7 92-5.2v3.7z" style="fill:#49b9e2;stroke-width:0"/><path d="m1733.7 178.1-91.5 5.2-.2-3.8 91.7-5.2v3.8zM1733.7 181.9l-91.3 5.2-.2-3.8 91.5-5.2v3.8z" class="cls-3"/><path d="m1733.7 185.7-91.1 5.1-.2-3.7 91.3-5.2v3.8zM1733.7 189.4l-31.5 1.8h-59.6v-.4l91.1-5.1v3.7z" class="cls-26"/><path d="m1702.2 191.2 31.5-1.8v1.8h-31.5z" style="fill:#49b6e1;stroke-width:0"/></g><path d="M1653.8 287.6h21.1c4.4 0 8.4-2.3 10.4-6l48.5-90.7h-46.9l-43.3 81.1c-3.8 7.2 1.8 15.6 10.4 15.6Z" style="fill:#289dc1;stroke-width:0"/><path d="m1791.7 110.2-41.7 78-23.5-43.9 23.4-43.7c2-3.7 6-6 10.3-6h21.1c8.6 0 14.2 8.4 10.4 15.6ZM1781.3 287.6h-21.1c-4.4 0-8.4-2.3-10.3-6l-23.4-43.7L1750 194l41.7 78c3.8 7.2-1.8 15.6-10.4 15.6Z" class="cls-2"/><path d="M1148.9 393.8c1.8 1 3.2 2.4 4.1 4.2.9 1.8 1.4 3.8 1.4 6.1s-.5 4.3-1.4 6c-.9 1.8-2.3 3.1-4.1 4.1-1.8 1-3.9 1.5-6.4 1.5h-13v12.5h-2.3v-35.9h15.2c2.5 0 4.6.5 6.4 1.5Zm.8 17.1c1.7-1.7 2.6-4.1 2.6-6.9s-.9-5.2-2.6-6.9-4.1-2.6-7.2-2.6h-12.9v19.1h12.9c3.1 0 5.5-.9 7.2-2.6ZM1168.5 427c-2-1.1-3.5-2.7-4.6-4.7-1.1-2-1.7-4.2-1.7-6.7s.6-4.7 1.7-6.7 2.7-3.6 4.6-4.7c2-1.1 4.2-1.7 6.6-1.7s4.7.6 6.7 1.7 3.5 2.7 4.6 4.7c1.1 2 1.7 4.2 1.7 6.7s-.6 4.7-1.7 6.7-2.7 3.6-4.6 4.7c-2 1.1-4.2 1.7-6.7 1.7s-4.7-.6-6.6-1.7Zm12.2-1.8c1.6-1 2.9-2.3 3.9-4 .9-1.7 1.4-3.6 1.4-5.7s-.5-4-1.4-5.7c-.9-1.7-2.2-3-3.9-4-1.6-1-3.5-1.4-5.5-1.4s-3.9.5-5.5 1.4c-1.6 1-2.9 2.3-3.8 4-.9 1.7-1.4 3.6-1.4 5.7s.5 4 1.4 5.7c.9 1.7 2.2 3 3.8 4 1.6 1 3.5 1.4 5.5 1.4s3.9-.5 5.5-1.4ZM1231 402.9h2.3l-8.8 25.3h-2.3l-2.5-7.2-5.2-14.7-5.2 14.7-2.5 7.2h-2.3l-8.8-25.3h2.3l3.6 10.5 4.1 12 8-22.5h1.9l7.9 22.6 4.1-12.1 3.5-10.5ZM1260.2 404c1.9 1 3.4 2.5 4.5 4.4 1 1.9 1.6 4.1 1.6 6.5v1.5h-23.2c.2 3.2 1.3 5.7 3.2 7.5s4.4 2.8 7.4 2.8 3.7-.4 5.4-1.1 3-1.7 4-3l1.5 1.3c-1.2 1.5-2.8 2.7-4.7 3.6-1.9.9-4 1.3-6.2 1.3s-4.7-.6-6.6-1.7c-1.9-1.1-3.5-2.7-4.6-4.7-1.1-2-1.6-4.3-1.6-6.8s.5-4.8 1.6-6.8 2.6-3.5 4.5-4.7c1.9-1.1 4.1-1.7 6.6-1.7s4.8.5 6.7 1.6Zm-14 3.1c-1.9 1.8-3 4.2-3.2 7.2h21.2c0-1.9-.5-3.7-1.4-5.2-.9-1.5-2.2-2.7-3.7-3.5-1.6-.8-3.4-1.3-5.5-1.3-3 0-5.4.9-7.3 2.7ZM1292.6 404l-1 1.8c-1.3-.8-2.7-1.1-4.3-1.1s-3 .5-4.3 1.4c-1.3.9-2.4 2.2-3.1 3.8s-1.1 3.4-1.1 5.3v13h-2.2v-25.3h2.1v5.6c.9-1.8 2.1-3.3 3.6-4.3s3.2-1.6 5.1-1.6 3.7.5 5.2 1.4ZM1317.6 404c1.9 1 3.4 2.5 4.5 4.4 1 1.9 1.6 4.1 1.6 6.5v1.5h-23.2c.2 3.2 1.3 5.7 3.2 7.5s4.4 2.8 7.4 2.8 3.7-.4 5.4-1.1c1.7-.8 3-1.7 3.9-3l1.5 1.3c-1.2 1.5-2.8 2.7-4.7 3.6s-4 1.3-6.2 1.3-4.7-.6-6.6-1.7c-1.9-1.1-3.5-2.7-4.6-4.7-1.1-2-1.6-4.3-1.6-6.8s.5-4.8 1.6-6.8 2.6-3.5 4.5-4.7c1.9-1.1 4.1-1.7 6.6-1.7s4.8.5 6.7 1.6Zm-14 3.1c-1.9 1.8-3 4.2-3.2 7.2h21.2c0-1.9-.5-3.7-1.4-5.2s-2.2-2.7-3.7-3.5-3.4-1.3-5.5-1.3c-3 0-5.4.9-7.3 2.7ZM1358 392.3v35.9h-2.1v-5.6c-1 1.8-2.5 3.3-4.4 4.4-1.9 1.1-4.1 1.6-6.5 1.6s-4.6-.6-6.5-1.7c-1.9-1.1-3.4-2.7-4.5-4.6s-1.6-4.2-1.6-6.8.5-4.8 1.6-6.8 2.6-3.5 4.5-4.6c1.9-1.1 4.1-1.7 6.5-1.7s4.6.5 6.5 1.6c1.9 1.1 3.4 2.5 4.3 4.4v-16.1h2.2Zm-7.3 32.9c1.6-.9 2.9-2.2 3.8-3.9.9-1.7 1.4-3.6 1.4-5.8s-.5-4.1-1.4-5.8c-.9-1.7-2.2-3-3.8-3.9-1.6-.9-3.5-1.4-5.5-1.4s-3.9.5-5.5 1.4c-1.6.9-2.9 2.2-3.8 3.9-.9 1.7-1.4 3.6-1.4 5.8s.5 4.1 1.4 5.8c.9 1.7 2.2 3 3.8 3.9 1.6.9 3.5 1.4 5.5 1.4s3.9-.5 5.5-1.4ZM1408 404.1c1.9 1.1 3.4 2.7 4.5 4.6 1.1 2 1.6 4.2 1.6 6.8s-.5 4.8-1.6 6.8-2.6 3.5-4.5 4.6c-1.9 1.1-4.1 1.7-6.6 1.7s-4.7-.5-6.6-1.6c-1.9-1.1-3.4-2.6-4.3-4.4v5.6h-2.1v-35.9h2.2v16.1c1-1.8 2.4-3.3 4.3-4.4 1.9-1.1 4.1-1.6 6.5-1.6s4.7.6 6.6 1.7Zm-1.2 21.1c1.6-.9 2.9-2.2 3.8-3.9.9-1.7 1.4-3.6 1.4-5.8s-.5-4.1-1.4-5.8c-.9-1.7-2.2-3-3.8-3.9-1.6-.9-3.5-1.4-5.5-1.4s-3.9.5-5.5 1.4c-1.6.9-2.9 2.2-3.8 3.9-.9 1.7-1.4 3.6-1.4 5.8s.5 4.1 1.4 5.8c.9 1.7 2.2 3 3.8 3.9 1.6.9 3.5 1.4 5.5 1.4s3.9-.5 5.5-1.4ZM1443 402.9h2.4l-16.4 37.6h-2.4l5.4-12.5-10.6-25.2h2.4l6.1 14.7 3.3 8 9.8-22.6Z" class="cls-9"/><path d="M1506.8 392.3h2.5v35.9h-2.2v-32.5l-15.5 21.5h-.6l-15.5-21.4v32.4h-2.3v-35.9h2.5l15.6 21.6 15.6-21.6ZM1526.9 427c-2-1.1-3.5-2.7-4.6-4.7-1.1-2-1.7-4.2-1.7-6.7s.6-4.7 1.7-6.7 2.6-3.6 4.6-4.7c2-1.1 4.2-1.7 6.6-1.7s4.7.6 6.7 1.7 3.5 2.7 4.6 4.7c1.1 2 1.7 4.2 1.7 6.7s-.6 4.7-1.7 6.7-2.7 3.6-4.6 4.7c-2 1.1-4.2 1.7-6.7 1.7s-4.7-.6-6.6-1.7Zm12.1-1.8c1.6-1 2.9-2.3 3.9-4 .9-1.7 1.4-3.6 1.4-5.7s-.5-4-1.4-5.7c-.9-1.7-2.2-3-3.9-4-1.6-1-3.5-1.4-5.5-1.4s-3.9.5-5.5 1.4c-1.6 1-2.9 2.3-3.8 4-.9 1.7-1.4 3.6-1.4 5.7s.5 4 1.4 5.7c.9 1.7 2.2 3 3.8 4 1.6 1 3.5 1.4 5.5 1.4s3.9-.5 5.5-1.4ZM1576.9 404.1c1.9 1.1 3.4 2.7 4.5 4.6 1.1 2 1.6 4.2 1.6 6.8s-.5 4.8-1.6 6.8-2.6 3.5-4.5 4.6c-1.9 1.1-4.1 1.7-6.6 1.7s-4.7-.5-6.6-1.6c-1.9-1.1-3.4-2.6-4.3-4.4v5.6h-2.1v-35.9h2.2v16.1c1-1.8 2.4-3.3 4.3-4.4 1.9-1.1 4.1-1.6 6.5-1.6s4.7.6 6.6 1.7Zm-1.2 21.1c1.6-.9 2.9-2.2 3.8-3.9.9-1.7 1.4-3.6 1.4-5.8s-.5-4.1-1.4-5.8c-.9-1.7-2.2-3-3.8-3.9-1.6-.9-3.5-1.4-5.5-1.4s-3.9.5-5.5 1.4c-1.6.9-2.9 2.2-3.8 3.9-.9 1.7-1.4 3.6-1.4 5.8s.5 4.1 1.4 5.8c.9 1.7 2.2 3 3.8 3.9 1.6.9 3.5 1.4 5.5 1.4s3.9-.5 5.5-1.4ZM1622.5 428.2l-4.1-9h-21.9l-4.1 9h-2.5l16.1-35.9h2.7l16.1 35.9h-2.5Zm-15-33.5-10 22.3h20l-10-22.3ZM1651.8 402.9h2.4l-10.7 25.3h-2.4l-10.6-25.3h2.4l4.6 11.1 4.8 11.7 4.9-11.7 4.6-11.1ZM1680.9 404c1.9 1 3.4 2.5 4.5 4.4 1 1.9 1.6 4.1 1.6 6.5v1.5h-23.2c.2 3.2 1.3 5.7 3.2 7.5s4.4 2.8 7.4 2.8 3.7-.4 5.4-1.1 3-1.7 4-3l1.5 1.3c-1.2 1.5-2.8 2.7-4.7 3.6-1.9.9-4 1.3-6.2 1.3s-4.7-.6-6.6-1.7c-1.9-1.1-3.5-2.7-4.6-4.7-1.1-2-1.6-4.3-1.6-6.8s.5-4.8 1.6-6.8 2.6-3.5 4.5-4.7c1.9-1.1 4.1-1.7 6.6-1.7s4.8.5 6.7 1.6Zm-14 3.1c-1.9 1.8-3 4.2-3.2 7.2h21.2c0-1.9-.5-3.7-1.4-5.2-.9-1.5-2.2-2.7-3.7-3.5-1.6-.8-3.4-1.3-5.5-1.3-3 0-5.4.9-7.3 2.7ZM1717.3 405.4c1.9 1.9 2.8 4.7 2.8 8.2v14.6h-2.2v-14.5c0-2.9-.8-5.2-2.3-6.8s-3.6-2.4-6.4-2.4-3.6.4-5.1 1.3c-1.5.8-2.6 2-3.5 3.4-.8 1.5-1.2 3.1-1.2 4.8v14.1h-2.2v-25.3h2.1v5c1-1.6 2.4-2.9 4.1-3.9 1.7-1 3.7-1.4 5.8-1.4 3.4 0 6 1 7.9 2.9ZM1754.5 402.9v25.3h-2.1v-5.1c-1 1.7-2.3 3-4.1 4s-3.6 1.5-5.7 1.5c-3.3 0-5.9-1-7.7-2.9s-2.8-4.7-2.8-8.2v-14.6h2.2v14.5c0 2.9.7 5.2 2.2 6.8 1.5 1.6 3.6 2.4 6.3 2.4s3.5-.4 5-1.3c1.5-.8 2.6-2 3.4-3.4.8-1.5 1.2-3.1 1.2-4.8V403h2.2ZM1784.8 404c1.9 1 3.4 2.5 4.5 4.4 1 1.9 1.6 4.1 1.6 6.5v1.5h-23.2c.2 3.2 1.3 5.7 3.2 7.5s4.4 2.8 7.4 2.8 3.7-.4 5.4-1.1 3-1.7 4-3l1.5 1.3c-1.2 1.5-2.8 2.7-4.7 3.6-1.9.9-4 1.3-6.2 1.3s-4.7-.6-6.6-1.7c-1.9-1.1-3.5-2.7-4.6-4.7-1.1-2-1.6-4.3-1.6-6.8s.5-4.8 1.6-6.8 2.6-3.5 4.5-4.7c1.9-1.1 4.1-1.7 6.6-1.7s4.8.5 6.7 1.6Zm-14 3.1c-1.9 1.8-3 4.2-3.2 7.2h21.2c0-1.9-.5-3.7-1.4-5.2-.9-1.5-2.2-2.7-3.7-3.5-1.6-.8-3.4-1.3-5.5-1.3-3 0-5.4.9-7.3 2.7Z" class="cls-28"/><path d="m446.1 136-98.8-57-27.7-16c-13.6-7.9-30.4-7.9-44 0l-27.7 16-98.8 57c-13.6 7.9-22 22.4-22 38.1v146.1c0 15.7 8.4 30.2 22 38.1l93.1 53.8 28.1-28.1 27.2-27.2 27.2 27.2 28.1 28.1 93.1-53.8c13.6-7.9 22-22.4 22-38.1V174.1c0-15.7-8.4-30.2-22-38.1Z" style="fill:url(#linear-gradient);stroke-width:0"/><path d="m273.2 428.8 13.6 7.8c6.7 3.8 14.9 3.8 21.5 0l13.6-7.8-24.4-24.4-24.4 24.4Z" class="cls-25"/><path d="M261.5 261.3c-1.2-2.9-2.4-5.8-3.6-8.5 1.9-.9 3.8-2.1 5.5-3.3 3.4-2.5 6.4-5.4 8.9-8.8 2.5-3.4 4.5-7.1 5.8-11.2 1.4-4.1 2.1-8.5 2.1-13.1s-1.1-11-3.2-15.9c-2.1-4.8-5-9.1-8.6-12.8-3.6-3.7-8-6.6-12.9-8.7-4.9-2.1-10.2-3.2-15.7-3.2h-47.9v135.6H218v-54.6h13.1l23.5 54.6H283l-21.5-50.2Zm-43.4-59.1h21.7c2 0 3.8.4 5.6 1.1 1.7.7 3.2 1.7 4.5 3 1.3 1.3 2.3 2.8 3 4.6.7 1.8 1.1 3.6 1.1 5.6s-.4 3.7-1.1 5.4c-.7 1.7-1.7 3.2-3 4.5-1.3 1.3-2.8 2.3-4.6 3-1.8.7-3.6 1.1-5.6 1.1H218v-28.3Z" class="cls-21"/><path d="m403.2 175.2-16.8 29-22.7 39.4L346 213l5.1-8.8 16.8-29h35.3z" class="cls-25"/><path d="M363.7 243.6 346 274.2l-5.2 9-10.6 18.4-6.1 10.6h-35.3l16.7-29 12-20.8 10.9-18.8-22.8-39.4-16.7-29h35.3l1.1 2 15.6 27 5.1 8.8 17.7 30.6z" class="cls-21"/><path d="M403.3 312.2H368l-16.8-29-5.2-9 17.7-30.6 22.8 39.6 16.8 29z" class="cls-25"/></svg>