<svg width="20" height="17" viewBox="0 0 20 17" fill="none" xmlns="http://www.w3.org/2000/svg">
<g clip-path="url(#clip0_900_862)">
<g clip-path="url(#clip1_900_862)">
<g clip-path="url(#clip2_900_862)">
<path d="M5.05968 16.0739C4.23437 16.1316 3.40533 16.0442 2.61016 15.8158C2.06506 15.6929 1.57776 15.3888 1.22785 14.9532C0.877951 14.5175 0.686136 13.9761 0.683747 13.4173C0.35634 10.6261 0.359362 7.80603 0.692749 5.01553C0.699673 4.49978 0.865926 3.99878 1.16872 3.5812C1.47152 3.16363 1.89604 2.84991 2.38411 2.68304C3.12228 2.41492 3.91041 2.31248 4.6926 2.38298C8.54242 2.21394 12.3942 2.24095 16.2441 2.43799C17.9114 2.52301 18.7836 3.35718 19.0276 5.15156C19.2742 7.09006 19.3365 9.04756 19.2137 10.9978C19.225 11.9428 19.1294 12.886 18.9286 13.8094C18.8382 14.4484 18.5115 15.0304 18.0131 15.4403C17.5146 15.8503 16.8805 16.0585 16.2361 16.0239C14.2256 16.1339 12.2149 16.1889 10.2038 16.1889C8.48941 16.1889 6.77471 16.1506 5.05968 16.0739ZM7.5262 6.77191V12.1731C7.5262 12.2961 7.55521 12.4231 7.54421 12.5471C7.60942 12.4392 7.70572 12.3535 7.82047 12.3012C7.93523 12.2489 8.0631 12.2325 8.18734 12.2541V12.2301C8.28736 11.904 8.59543 11.83 8.84448 11.705C10.2268 10.9958 11.6161 10.2977 12.9994 9.58951C13.1774 9.49849 13.3904 9.44948 13.5065 9.25944C13.5065 9.0904 13.3624 9.05939 13.2584 9.01038C11.5541 8.17221 9.8807 7.25401 8.18734 6.38083C8.04003 6.28699 7.876 6.22246 7.70424 6.19078C7.54821 6.19078 7.5272 6.36382 7.5262 6.77191Z" fill="#A9332F"/>
</g>
</g>
</g>
<defs>
<clipPath id="clip0_900_862">
<rect width="18.83" height="13.92" fill="white" transform="translate(0.44043 2.27002)"/>
</clipPath>
<clipPath id="clip1_900_862">
<rect width="18.83" height="13.92" fill="white" transform="translate(0.44043 2.27002)"/>
</clipPath>
<clipPath id="clip2_900_862">
<rect width="18.83" height="13.918" fill="white" transform="translate(0.44043 2.271)"/>
</clipPath>
</defs>
</svg>
