<svg width="42" height="42" viewBox="0 0 42 42" fill="none" xmlns="http://www.w3.org/2000/svg">
<rect x="0.5" y="0.5" width="41" height="41" rx="20.5" stroke="#217293"/>
<path d="M16.3226 21.652H18.5149V30.6774C18.5149 30.8556 18.6593 31 18.8375 31H22.5546C22.7328 31 22.8772 30.8556 22.8772 30.6774V21.6945H25.3975C25.5614 21.6945 25.6992 21.5715 25.7179 21.4088L26.1007 18.0861C26.1112 17.9946 26.0823 17.9031 26.0211 17.8345C25.9599 17.7659 25.8723 17.7266 25.7803 17.7266H22.8774V15.6437C22.8774 15.0159 23.2154 14.6975 23.8823 14.6975C23.9773 14.6975 25.7803 14.6975 25.7803 14.6975C25.9585 14.6975 26.1029 14.553 26.1029 14.3749V11.325C26.1029 11.1468 25.9585 11.0024 25.7803 11.0024H23.1645C23.1461 11.0015 23.1051 11 23.0447 11C22.5908 11 21.0132 11.0891 19.767 12.2355C18.3863 13.506 18.5782 15.0272 18.6241 15.2909V17.7265H16.3226C16.1444 17.7265 16 17.8709 16 18.0491V21.3294C16 21.5075 16.1444 21.652 16.3226 21.652Z" fill="#217293"/>
</svg>
