<svg width="42" height="42" viewBox="0 0 42 42" fill="none" xmlns="http://www.w3.org/2000/svg">
<rect x="0.5" y="0.5" width="41" height="41" rx="20.5" stroke="#217293"/>
<g clip-path="url(#clip0_1230_1839)">
<path d="M16.724 18.1473H13.512C13.3694 18.1473 13.2539 18.2629 13.2539 18.4054V28.7243C13.2539 28.8668 13.3694 28.9823 13.512 28.9823H16.724C16.8666 28.9823 16.9821 28.8668 16.9821 28.7243V18.4054C16.9821 18.2629 16.8666 18.1473 16.724 18.1473Z" fill="#217293"/>
<path d="M15.1195 13.0176C13.9508 13.0176 13 13.9674 13 15.1348C13 16.3027 13.9508 17.2529 15.1195 17.2529C16.2873 17.2529 17.2374 16.3027 17.2374 15.1348C17.2374 13.9674 16.2873 13.0176 15.1195 13.0176Z" fill="#217293"/>
<path d="M24.8948 17.8909C23.6048 17.8909 22.6511 18.4454 22.0727 19.0756V18.4054C22.0727 18.2629 21.9572 18.1473 21.8146 18.1473H18.7385C18.596 18.1473 18.4805 18.2629 18.4805 18.4054V28.7243C18.4805 28.8668 18.596 28.9823 18.7385 28.9823H21.9435C22.0861 28.9823 22.2016 28.8668 22.2016 28.7243V23.6188C22.2016 21.8984 22.6689 21.2282 23.8682 21.2282C25.1743 21.2282 25.2781 22.3026 25.2781 23.7073V28.7243C25.2781 28.8669 25.3936 28.9824 25.5362 28.9824H28.7424C28.8849 28.9824 29.0004 28.8669 29.0004 28.7243V23.0642C29.0004 20.506 28.5126 17.8909 24.8948 17.8909Z" fill="#217293"/>
</g>
<defs>
<clipPath id="clip0_1230_1839">
<rect width="16" height="16" fill="white" transform="translate(13 13)"/>
</clipPath>
</defs>
</svg>
